<svg width="128" height="128" viewBox="0 0 128 128" fill="none" xmlns="http://www.w3.org/2000/svg">
<mask id="path-3-inside-1" fill="white">
<path fill-rule="evenodd" clip-rule="evenodd" d="M16 16H112V112H16V16ZM106 64L64 22L22 64L64 106L106 64ZM64 33L33 64L64 95L95 64L64 33Z"/>
</mask>
<path fill-rule="evenodd" clip-rule="evenodd" d="M16 16H112V112H16V16ZM106 64L64 22L22 64L64 106L106 64ZM64 33L33 64L64 95L95 64L64 33Z" fill="black"/>
<path d="M112 16H114V14H112V16ZM16 16V14H14V16H16ZM112 112V114H114V112H112ZM16 112H14V114H16V112ZM64 22L65.4142 20.5858L64 19.1716L62.5858 20.5858L64 22ZM106 64L107.414 65.4142L108.828 64L107.414 62.5858L106 64ZM22 64L20.5858 62.5858L19.1716 64L20.5858 65.4142L22 64ZM64 106L62.5858 107.414L64 108.828L65.4142 107.414L64 106ZM33 64L31.5858 62.5858L30.1716 64L31.5858 65.4142L33 64ZM64 33L65.4142 31.5858L64 30.1716L62.5858 31.5858L64 33ZM64 95L62.5858 96.4142L64 97.8284L65.4142 96.4142L64 95ZM95 64L96.4142 65.4142L97.8284 64L96.4142 62.5858L95 64ZM112 14H16V18H112V14ZM114 112V16H110V112H114ZM16 114H112V110H16V114ZM14 16V112H18V16H14ZM62.5858 23.4142L104.586 65.4142L107.414 62.5858L65.4142 20.5858L62.5858 23.4142ZM23.4142 65.4142L65.4142 23.4142L62.5858 20.5858L20.5858 62.5858L23.4142 65.4142ZM65.4142 104.586L23.4142 62.5858L20.5858 65.4142L62.5858 107.414L65.4142 104.586ZM104.586 62.5858L62.5858 104.586L65.4142 107.414L107.414 65.4142L104.586 62.5858ZM34.4142 65.4142L65.4142 34.4142L62.5858 31.5858L31.5858 62.5858L34.4142 65.4142ZM65.4142 93.5858L34.4142 62.5858L31.5858 65.4142L62.5858 96.4142L65.4142 93.5858ZM93.5858 62.5858L62.5858 93.5858L65.4142 96.4142L96.4142 65.4142L93.5858 62.5858ZM62.5858 34.4142L93.5858 65.4142L96.4142 62.5858L65.4142 31.5858L62.5858 34.4142Z" fill="white" mask="url(#path-3-inside-1)"/>
</svg>
