<svg width="128" height="128" viewBox="0 0 128 128" fill="none" xmlns="http://www.w3.org/2000/svg">
<mask id="path-3-inside-1" fill="white">
<path fill-rule="evenodd" clip-rule="evenodd" d="M16 16H112V112H16V16ZM104 64C104 86.0914 86.0914 104 64 104C41.9086 104 24 86.0914 24 64C24 41.9086 41.9086 24 64 24C86.0914 24 104 41.9086 104 64ZM64 95C81.1208 95 95 81.1208 95 64C95 46.8792 81.1208 33 64 33C46.8792 33 33 46.8792 33 64C33 81.1208 46.8792 95 64 95Z"/>
</mask>
<path fill-rule="evenodd" clip-rule="evenodd" d="M16 16H112V112H16V16ZM104 64C104 86.0914 86.0914 104 64 104C41.9086 104 24 86.0914 24 64C24 41.9086 41.9086 24 64 24C86.0914 24 104 41.9086 104 64ZM64 95C81.1208 95 95 81.1208 95 64C95 46.8792 81.1208 33 64 33C46.8792 33 33 46.8792 33 64C33 81.1208 46.8792 95 64 95Z" fill="black"/>
<path d="M112 16H114V14H112V16ZM16 16V14H14V16H16ZM112 112V114H114V112H112ZM16 112H14V114H16V112ZM112 14H16V18H112V14ZM114 112V16H110V112H114ZM16 114H112V110H16V114ZM14 16V112H18V16H14ZM64 106C87.196 106 106 87.196 106 64H102C102 84.9868 84.9868 102 64 102V106ZM22 64C22 87.196 40.804 106 64 106V102C43.0132 102 26 84.9868 26 64H22ZM64 22C40.804 22 22 40.804 22 64H26C26 43.0132 43.0132 26 64 26V22ZM106 64C106 40.804 87.196 22 64 22V26C84.9868 26 102 43.0132 102 64H106ZM93 64C93 80.0163 80.0163 93 64 93V97C82.2254 97 97 82.2254 97 64H93ZM64 35C80.0163 35 93 47.9837 93 64H97C97 45.7746 82.2254 31 64 31V35ZM35 64C35 47.9837 47.9837 35 64 35V31C45.7746 31 31 45.7746 31 64H35ZM64 93C47.9837 93 35 80.0163 35 64H31C31 82.2254 45.7746 97 64 97V93Z" fill="white" mask="url(#path-3-inside-1)"/>
</svg>
