<svg width="128" height="128" viewBox="0 0 128 128" fill="none" xmlns="http://www.w3.org/2000/svg">
<mask id="path-2-inside-1" fill="white">
<path fill-rule="evenodd" clip-rule="evenodd" d="M36.3328 16L64 43.6672L91.6672 16H112V36.3328L84.3328 64L112 91.6672V112H91.6672L64 84.3328L36.3328 112H16V91.6672L43.6672 64L16 36.3328V16H36.3328Z"/>
</mask>
<path fill-rule="evenodd" clip-rule="evenodd" d="M36.3328 16L64 43.6672L91.6672 16H112V36.3328L84.3328 64L112 91.6672V112H91.6672L64 84.3328L36.3328 112H16V91.6672L43.6672 64L16 36.3328V16H36.3328Z" fill="white"/>
<path d="M64 43.6672L62.5858 45.0814L64 46.4956L65.4142 45.0814L64 43.6672ZM36.3328 16L37.747 14.5858L37.1612 14H36.3328V16ZM91.6672 16V14H90.8388L90.253 14.5858L91.6672 16ZM112 16H114V14H112V16ZM112 36.3328L113.414 37.747L114 37.1612V36.3328H112ZM84.3328 64L82.9186 62.5858L81.5044 64L82.9186 65.4142L84.3328 64ZM112 91.6672H114V90.8387L113.414 90.253L112 91.6672ZM112 112V114H114V112H112ZM91.6672 112L90.253 113.414L90.8388 114H91.6672V112ZM64 84.3328L65.4142 82.9186L64 81.5044L62.5858 82.9186L64 84.3328ZM36.3328 112V114H37.1612L37.747 113.414L36.3328 112ZM16 112H14V114H16V112ZM16 91.6672L14.5858 90.253L14 90.8388V91.6672H16ZM43.6672 64L45.0815 65.4142L46.4957 64L45.0815 62.5858L43.6672 64ZM16 36.3328H14V37.1612L14.5858 37.747L16 36.3328ZM16 16V14H14V16H16ZM65.4142 42.253L37.747 14.5858L34.9186 17.4142L62.5858 45.0814L65.4142 42.253ZM90.253 14.5858L62.5858 42.253L65.4142 45.0814L93.0814 17.4142L90.253 14.5858ZM91.6672 18H112V14H91.6672V18ZM110 16V36.3328H114V16H110ZM110.586 34.9186L82.9186 62.5858L85.747 65.4142L113.414 37.747L110.586 34.9186ZM82.9186 65.4142L110.586 93.0814L113.414 90.253L85.747 62.5858L82.9186 65.4142ZM110 91.6672V112H114V91.6672H110ZM112 110H91.6672V114H112V110ZM62.5858 85.747L90.253 113.414L93.0815 110.586L65.4142 82.9186L62.5858 85.747ZM37.747 113.414L65.4142 85.747L62.5858 82.9186L34.9186 110.586L37.747 113.414ZM36.3328 110H16V114H36.3328V110ZM18 112V91.6672H14V112H18ZM42.253 62.5858L14.5858 90.253L17.4142 93.0815L45.0815 65.4142L42.253 62.5858ZM14.5858 37.747L42.253 65.4142L45.0815 62.5858L17.4142 34.9185L14.5858 37.747ZM18 36.3328V16H14V36.3328H18ZM16 18H36.3328V14H16V18Z" fill="black" mask="url(#path-2-inside-1)"/>
</svg>
